<svg width="3498" height="1527" xmlns="http://www.w3.org/2000/svg" xmlns:xlink="http://www.w3.org/1999/xlink" xml:space="preserve" overflow="hidden"><g transform="translate(-242 -233)"><g><rect x="247" y="360" width="613" height="824" stroke="#000000" stroke-width="5.72917" stroke-linecap="square" stroke-linejoin="miter" stroke-miterlimit="8" stroke-dasharray="17.1875 5.72917" stroke-opacity="1" fill="none"/><text fill="#000000" fill-opacity="1" font-family="Arial,Arial_MSFontService,sans-serif" font-style="normal" font-variant="normal" font-weight="400" font-stretch="normal" font-size="50" text-anchor="start" direction="ltr" writing-mode="lr-tb" unicode-bidi="normal" text-decoration="none" transform="matrix(1 0 0 1 412.493 442)">Corporate </text><text fill="#000000" fill-opacity="1" font-family="Arial,Arial_MSFontService,sans-serif" font-style="normal" font-variant="normal" font-weight="400" font-stretch="normal" font-size="50" text-anchor="start" direction="ltr" writing-mode="lr-tb" unicode-bidi="normal" text-decoration="none" transform="matrix(1 0 0 1 412.493 503)">data center</text><rect x="1118" y="239" width="2618" height="1518" stroke="#232F3E" stroke-width="5.72917" stroke-linecap="butt" stroke-linejoin="miter" stroke-miterlimit="8" stroke-opacity="1" fill="none"/><text fill="#FFFFFF" fill-opacity="1" font-family="Aptos,Aptos_MSFontService,sans-serif" font-style="normal" font-variant="normal" font-weight="400" font-stretch="normal" font-size="55" text-anchor="start" direction="ltr" writing-mode="lr-tb" unicode-bidi="normal" text-decoration="none" transform="matrix(1 0 0 1 1299.59 323)">AWS Cloud</text><g><g><g><path d="M1351.92 799.924 1346.77 799.924 1346.77 739.162C1346.77 737.811 1345.98 736.584 1344.75 736.031L1344.43 735.886C1337.52 732.769 1330.38 729.541 1320.11 729.541 1309.37 729.541 1301.49 733.009 1293.7 736.876 1292.53 737.457 1291.79 738.65 1291.79 739.956L1291.79 799.924 1286.77 799.924 1286.77 735.072C1295.13 728.269 1307.19 724.391 1320.14 724.391 1332.17 724.391 1343.65 727.819 1351.92 733.838L1351.92 799.924ZM1320.14 717.516C1304.93 717.516 1290.68 722.394 1281.05 730.905 1280.31 731.555 1279.89 732.494 1279.89 733.48L1279.89 803.361C1279.89 805.262 1281.43 806.799 1283.33 806.799L1295.23 806.799C1297.13 806.799 1298.67 805.262 1298.67 803.361L1298.67 742.098C1305.27 738.911 1311.66 736.416 1320.11 736.416 1328.13 736.416 1333.97 738.736 1339.9 741.386L1339.9 803.361C1339.9 805.262 1341.43 806.799 1343.33 806.799L1355.36 806.799C1357.26 806.799 1358.79 805.262 1358.79 803.361L1358.79 732.136C1358.79 731.091 1358.32 730.101 1357.5 729.445 1347.96 721.865 1334.34 717.516 1320.14 717.516ZM1319.34 829.936C1281.52 829.936 1250.75 799.164 1250.75 761.341 1250.75 723.518 1281.52 692.749 1319.34 692.749 1357.17 692.749 1387.94 723.518 1387.94 761.341 1387.94 799.164 1357.17 829.936 1319.34 829.936ZM1319.34 685.874C1277.73 685.874 1243.87 719.73 1243.87 761.341 1243.87 802.959 1277.73 836.811 1319.34 836.811 1360.96 836.811 1394.81 802.959 1394.81 761.341 1394.81 719.73 1360.96 685.874 1319.34 685.874Z" fill="#8C4FFF" fill-rule="evenodd" fill-opacity="1"/></g></g></g><text fill="#000000" fill-opacity="1" font-family="Arial,Arial_MSFontService,sans-serif" font-style="normal" font-variant="normal" font-weight="400" font-stretch="normal" font-size="50" text-anchor="start" direction="ltr" writing-mode="lr-tb" unicode-bidi="normal" text-decoration="none" transform="matrix(1 0 0 1 1238.4 901)">Internet </text><text fill="#000000" fill-opacity="1" font-family="Arial,Arial_MSFontService,sans-serif" font-style="normal" font-variant="normal" font-weight="400" font-stretch="normal" font-size="50" text-anchor="start" direction="ltr" writing-mode="lr-tb" unicode-bidi="normal" text-decoration="none" transform="matrix(1 0 0 1 1229.51 962)">gateway</text><rect x="1617" y="544" width="447" height="222" stroke="#00A4A6" stroke-width="5.72917" stroke-linecap="butt" stroke-linejoin="miter" stroke-miterlimit="8" stroke-dasharray="22.9167 17.1875" stroke-opacity="1" fill="none"/><text fill="#07878F" fill-opacity="1" font-family="Arial,Arial_MSFontService,sans-serif" font-style="normal" font-variant="normal" font-weight="400" font-stretch="normal" font-size="50" text-anchor="start" direction="ltr" writing-mode="lr-tb" unicode-bidi="normal" text-decoration="none" transform="matrix(1 0 0 1 1654.87 609)">Availability Zone</text><g><g><g><path d="M32.4375 140.562 140.562 140.562 140.562 32.4375 32.4375 32.4375 32.4375 140.562ZM165.792 46.8541 165.792 39.6458 147.771 39.6458 147.771 28.8333C147.771 26.8438 146.156 25.2292 144.167 25.2292L133.354 25.2292 133.354 7.20833 126.146 7.20833 126.146 25.2292 111.729 25.2292 111.729 7.20833 104.521 7.20833 104.521 25.2292 90.1041 25.2292 90.1041 7.20833 82.8958 7.20833 82.8958 25.2292 68.4791 25.2292 68.4791 7.20833 61.2708 7.20833 61.2708 25.2292 46.8541 25.2292 46.8541 7.20833 39.6458 7.20833 39.6458 25.2292 28.8333 25.2292C26.8402 25.2292 25.2292 26.8438 25.2292 28.8333L25.2292 39.6458 7.20833 39.6458 7.20833 46.8541 25.2292 46.8541 25.2292 61.2708 7.20833 61.2708 7.20833 68.4791 25.2292 68.4791 25.2292 82.8958 7.20833 82.8958 7.20833 90.1041 25.2292 90.1041 25.2292 104.521 7.20833 104.521 7.20833 111.729 25.2292 111.729 25.2292 126.146 7.20833 126.146 7.20833 133.354 25.2292 133.354 25.2292 144.167C25.2292 146.16 26.8402 147.771 28.8333 147.771L39.6458 147.771 39.6458 165.792 46.8541 165.792 46.8541 147.771 61.2708 147.771 61.2708 165.792 68.4791 165.792 68.4791 147.771 82.8958 147.771 82.8958 165.792 90.1041 165.792 90.1041 147.771 104.521 147.771 104.521 165.792 111.729 165.792 111.729 147.771 126.146 147.771 126.146 165.792 133.354 165.792 133.354 147.771 144.167 147.771C146.156 147.771 147.771 146.16 147.771 144.167L147.771 133.354 165.792 133.354 165.792 126.146 147.771 126.146 147.771 111.729 165.792 111.729 165.792 104.521 147.771 104.521 147.771 90.1041 165.792 90.1041 165.792 82.8958 147.771 82.8958 147.771 68.4791 165.792 68.4791 165.792 61.2708 147.771 61.2708 147.771 46.8541 165.792 46.8541Z" fill="#ED7100" fill-rule="evenodd" fill-opacity="1" transform="matrix(1.00578 0 0 1 1805 1298)"/></g></g></g><g><g><g><path d="M2397.21 1142.13C2397.21 1140.81 2397.21 1137.31 2391.47 1136.13 2389.94 1135.82 2388.82 1134.52 2388.72 1132.97 2388.59 1130.71 2387.66 1129.3 2386.3 1129.3 2385.67 1129.3 2385.06 1129.63 2384.64 1130.19 2383.88 1131.2 2382.64 1131.71 2381.38 1131.53 2380.13 1131.34 2379.08 1130.49 2378.65 1129.3 2377.98 1127.44 2377 1125.85 2375.81 1124.68 2374.73 1123.6 2372.24 1121.61 2368.71 1121.61 2367.48 1121.61 2366.11 1121.86 2364.63 1122.47 2361.47 1123.79 2358.89 1127.76 2358.89 1131.31 2358.89 1131.73 2358.92 1132.13 2358.96 1132.53 2359.17 1134.25 2358.06 1135.85 2356.39 1136.27 2353.35 1137.04 2351.8 1138.98 2351.8 1142.04L2351.82 1142.54C2351.98 1145.39 2355.31 1148 2358.82 1148L2391.1 1148C2397.21 1148 2397.21 1143.58 2397.21 1142.13ZM2404.08 1142.13C2404.08 1151.34 2397.45 1154.74 2391.61 1154.88 2391.55 1154.88 2391.49 1154.88 2391.43 1154.88L2358.82 1154.88C2351.66 1154.88 2345.31 1149.39 2344.96 1142.89 2344.94 1142.6 2344.93 1142.33 2344.93 1142.04 2344.93 1136.76 2347.54 1132.63 2352.03 1130.55 2352.36 1124.51 2356.53 1118.4 2361.98 1116.13 2368.59 1113.39 2375.55 1114.75 2380.65 1119.79 2381.6 1120.73 2382.46 1121.8 2383.2 1122.99 2387.49 1121.37 2393.6 1123.29 2395.22 1130.04 2400.88 1131.97 2404.08 1136.28 2404.08 1142.13ZM2443.26 1136.5C2443.26 1098.59 2412.41 1067.75 2374.51 1067.75 2336.59 1067.75 2305.75 1098.59 2305.75 1136.5 2305.75 1174.41 2336.59 1205.26 2374.51 1205.26 2412.41 1205.26 2443.26 1174.41 2443.26 1136.5ZM2450.13 1136.5C2450.13 1178.21 2416.21 1212.13 2374.51 1212.13 2332.8 1212.13 2298.88 1178.21 2298.88 1136.5 2298.88 1094.8 2332.8 1060.87 2374.51 1060.87 2416.21 1060.87 2450.13 1094.8 2450.13 1136.5ZM2332.13 1124 2327.27 1119.14 2312.33 1134.07C2311.69 1134.72 2311.32 1135.59 2311.32 1136.5 2311.32 1137.42 2311.69 1138.29 2312.33 1138.93L2327.27 1153.87 2332.13 1149.01 2323.06 1139.94 2340.09 1139.94 2340.09 1133.07 2323.06 1133.07 2332.13 1124ZM2436.68 1134.07 2421.74 1119.14 2416.88 1124 2425.95 1133.07 2408.83 1133.07 2408.83 1139.94 2425.95 1139.94 2416.88 1149.01 2421.74 1153.87 2436.68 1138.93C2437.33 1138.29 2437.69 1137.42 2437.69 1136.5 2437.69 1135.59 2437.33 1134.72 2436.68 1134.07ZM2377.94 1187.95 2377.94 1160.48 2371.07 1160.48 2371.07 1187.95 2362 1178.88 2357.14 1183.74 2372.07 1198.68C2372.72 1199.33 2373.59 1199.69 2374.51 1199.69 2375.42 1199.69 2376.29 1199.33 2376.94 1198.68L2391.87 1183.74 2387.01 1178.88 2377.94 1187.95ZM2362 1094.13 2357.14 1089.26 2372.07 1074.33C2373.42 1072.99 2375.59 1072.99 2376.94 1074.33L2391.87 1089.26 2387.01 1094.13 2377.94 1085.06 2377.94 1109.94 2371.07 1109.94 2371.07 1085.06 2362 1094.13Z" fill="#8C4FFF" fill-rule="evenodd" fill-opacity="1"/></g></g></g><g><g><g><path d="M87.2042 116.731 93.1843 122.711 111.636 104.255C113.29 102.602 113.29 99.9247 111.636 98.2753L93.1843 79.8193 87.2042 85.8035 98.4369 97.0362 27.4503 97.0362 27.4503 105.495 98.4411 105.495 87.2042 116.731ZM185.617 101.265C185.617 54.7572 147.774 16.9146 101.266 16.9146 54.7538 16.9146 16.9154 54.7572 16.9154 101.265 16.9154 147.778 54.7538 185.616 101.266 185.616 147.774 185.616 185.617 147.778 185.617 101.265ZM194.075 101.265C194.075 152.438 152.443 194.075 101.266 194.075 50.0933 194.075 8.45707 152.438 8.45707 101.265 8.45707 50.0882 50.0933 8.45623 101.266 8.45623 152.443 8.45623 194.075 50.0882 194.075 101.265ZM67.509 112.337 67.509 114.257C67.509 114.511 67.5301 114.761 67.5724 115.01 67.8431 116.486 74.4194 151.225 101.266 151.225 128.113 151.225 134.689 116.486 134.956 115.01 135.002 114.761 135.023 114.511 135.023 114.257L135.023 69.6354C135.023 67.9099 133.975 66.3578 132.372 65.715L102.844 53.8268C101.837 53.4208 100.695 53.4208 99.6887 53.8268L70.1607 65.715C68.5578 66.3578 67.509 67.9099 67.509 69.6354L67.509 90.1934 75.9673 90.1934 75.9673 72.4943 101.266 62.3105 126.565 72.4943 126.565 113.839C125.88 117.104 119.883 142.766 101.266 142.766 82.6494 142.766 76.6524 117.104 75.9673 113.839L75.9673 112.337 67.509 112.337ZM149.783 56.3516 149.783 112.815C149.783 131.982 139.642 168.239 101.266 168.239 81.2961 168.239 66.5405 157.907 58.5897 138.364 54.3647 128.006 53.189 117.776 52.8676 112.6L61.309 112.071C61.5458 115.822 62.5101 125.583 66.4263 135.171 73.0661 151.504 84.7894 159.78 101.266 159.78 140.746 159.78 141.321 114.727 141.325 112.811L141.325 59.2063 101.266 43.0804 61.2075 59.2063 61.2075 90.1934 52.7492 90.1934 52.7492 56.3516C52.7492 54.6218 53.798 53.0697 55.3966 52.4269L99.6887 34.5967C100.695 34.1907 101.837 34.1907 102.844 34.5967L147.132 52.4269C148.734 53.0697 149.783 54.6218 149.783 56.3516Z" fill="#8C4FFF" fill-rule="evenodd" fill-opacity="1" transform="matrix(1 0 0 1.00493 2274 666)"/></g></g></g><g><g><g><path d="M3339 636 3614 636 3614 911 3339 911Z" fill="#7AA116" fill-rule="evenodd" fill-opacity="1"/><path d="M3548.12 783.443 3549.44 774.148C3561.62 781.439 3561.77 784.45 3561.77 784.533 3561.75 784.55 3559.67 786.283 3548.12 783.443ZM3541.44 781.587C3520.41 775.221 3491.11 761.78 3479.25 756.177 3479.25 756.129 3479.27 756.084 3479.27 756.036 3479.27 751.481 3475.56 747.776 3471 747.776 3466.45 747.776 3462.75 751.481 3462.75 756.036 3462.75 760.591 3466.45 764.296 3471 764.296 3473 764.296 3474.82 763.55 3476.25 762.365 3490.2 768.968 3519.27 782.213 3540.46 788.469L3532.08 847.615C3532.06 847.776 3532.05 847.938 3532.05 848.099 3532.05 853.307 3508.99 862.874 3471.32 862.874 3433.25 862.874 3409.95 853.307 3409.95 848.099 3409.95 847.941 3409.94 847.786 3409.92 847.632L3392.41 719.733C3407.57 730.165 3440.17 735.686 3471.34 735.686 3502.47 735.686 3535.02 730.186 3550.2 719.784L3541.44 781.587ZM3390.56 706.392C3390.81 701.868 3416.8 684.124 3471.34 684.124 3525.88 684.124 3551.87 701.865 3552.12 706.392L3552.12 707.935C3549.13 718.079 3515.45 728.811 3471.34 728.811 3427.16 728.811 3393.46 718.045 3390.56 707.887L3390.56 706.392ZM3559 706.467C3559 694.556 3524.85 677.249 3471.34 677.249 3417.84 677.249 3383.69 694.556 3383.69 706.467L3384.01 709.059 3403.08 848.36C3403.54 863.939 3445.08 869.749 3471.32 869.749 3503.88 869.749 3538.47 862.262 3538.92 848.371L3547.16 790.287C3551.74 791.384 3555.51 791.944 3558.54 791.944 3562.61 791.944 3565.36 790.951 3567.02 788.964 3568.39 787.334 3568.91 785.361 3568.52 783.261 3567.63 778.504 3561.98 773.375 3550.48 766.813L3558.65 709.193 3559 706.467Z" fill="#FFFFFF" fill-rule="evenodd" fill-opacity="1"/></g></g></g><g><g><g><path d="M1310 1177 1448 1177 1448 1315 1310 1315Z" fill="#7AA116" fill-rule="evenodd" fill-opacity="1"/><path d="M1377.4 1253.07C1381.21 1253.07 1384.32 1256.17 1384.32 1259.99 1384.32 1263.8 1381.21 1266.91 1377.4 1266.91 1373.58 1266.91 1370.48 1263.8 1370.48 1259.99 1370.48 1256.17 1373.58 1253.07 1377.4 1253.07L1377.4 1253.07ZM1375.59 1270.17 1375.59 1282.23 1379.04 1282.23 1379.04 1270.19C1383.97 1269.4 1387.77 1265.14 1387.77 1259.99 1387.77 1254.27 1383.12 1249.62 1377.4 1249.62 1371.68 1249.62 1367.03 1254.27 1367.03 1259.99 1367.03 1265.09 1370.73 1269.31 1375.59 1270.17ZM1344.5 1290.9 1410.09 1290.9 1410.09 1239.1 1344.5 1239.1 1344.5 1290.9ZM1358.46 1220.07C1358.46 1209.64 1366.95 1201.15 1377.38 1201.15 1387.81 1201.15 1396.29 1209.64 1396.29 1220.07L1396.29 1235.65 1358.46 1235.65 1358.46 1220.07ZM1411.82 1235.65 1399.74 1235.65 1399.74 1220.07C1399.74 1207.73 1389.71 1197.7 1377.38 1197.7 1365.04 1197.7 1355.01 1207.73 1355.01 1220.07L1355.01 1235.65 1342.77 1235.65C1341.82 1235.65 1341.05 1236.42 1341.05 1237.37L1341.05 1292.62C1341.05 1293.58 1341.82 1294.35 1342.77 1294.35L1411.82 1294.35C1412.77 1294.35 1413.54 1293.58 1413.54 1292.62L1413.54 1237.37C1413.54 1236.42 1412.77 1235.65 1411.82 1235.65Z" fill="#FFFFFF" fill-rule="evenodd" fill-opacity="1"/></g></g></g><rect x="2140" y="544" width="435" height="498" stroke="#DD344C" stroke-width="5.72917" stroke-linecap="butt" stroke-linejoin="miter" stroke-miterlimit="8" stroke-opacity="1" fill="none"/><text fill="#DE344C" fill-opacity="1" font-family="Arial,Arial_MSFontService,sans-serif" font-style="normal" font-variant="normal" font-weight="400" font-stretch="normal" font-size="50" text-anchor="start" direction="ltr" writing-mode="lr-tb" unicode-bidi="normal" text-decoration="none" transform="matrix(1 0 0 1 2195.21 626)">Security group</text><g><g><g><path d="M2820 636 3095 636 3095 911 2820 911Z" fill="#01A88D" fill-rule="evenodd" fill-opacity="1"/><path d="M3034.9 726.715C3034.35 727.959 3033.11 728.764 3031.75 728.764L3015.94 728.764 3015.94 756.263 3026.25 756.263C3028.15 756.263 3029.69 757.8 3029.69 759.701L3029.69 859.388C3029.69 861.286 3028.15 862.826 3026.25 862.826L2888.75 862.826C2883.06 862.826 2878.44 858.199 2878.44 852.513L2878.44 732.201C2878.44 730.3 2879.98 728.764 2881.88 728.764L2925.04 728.764C2926.01 728.764 2926.94 729.176 2927.59 729.898L2935.85 739.076 2954.06 739.076 2954.06 745.951 2934.32 745.951C2933.35 745.951 2932.42 745.538 2931.77 744.813L2923.51 735.639 2885.31 735.639 2885.31 852.513C2885.31 854.408 2886.86 855.951 2888.75 855.951 2890.65 855.951 2892.19 854.408 2892.19 852.513L2892.19 759.701C2892.19 757.8 2893.73 756.263 2895.63 756.263L2954.06 756.263 2954.06 763.138 2899.06 763.138 2899.06 852.513C2899.06 853.723 2898.82 854.868 2898.43 855.951L3022.81 855.951 3022.81 763.138 2998.75 763.138 2998.75 756.263 3009.06 756.263 3009.06 725.326C3009.06 723.425 3010.6 721.889 3012.5 721.889L3023.97 721.889 3000.47 696.059 2976.96 721.889 2988.44 721.889C2990.34 721.889 2991.88 723.425 2991.88 725.326L2991.88 745.951 2991.88 759.701 2991.88 773.451 3005.63 773.451C3006.97 773.451 3008.18 774.228 3008.75 775.441 3009.31 776.655 3009.11 778.085 3008.25 779.105L2979.19 813.48C2978.54 814.251 2977.59 814.697 2976.58 814.701L2976.57 814.701C2975.56 814.701 2974.61 814.261 2973.96 813.498L2944.58 779.123C2943.71 778.102 2943.51 776.668 2944.07 775.448 2944.63 774.231 2945.85 773.451 2947.19 773.451L2960.94 773.451 2960.94 745.951 2967.81 745.951 2967.81 776.888C2967.81 778.786 2966.28 780.326 2964.38 780.326L2954.65 780.326 2976.55 805.956 2998.22 780.326 2988.44 780.326C2986.54 780.326 2985 778.786 2985 776.888L2985 759.701 2985 745.951 2985 728.764 2969.19 728.764C2967.83 728.764 2966.6 727.959 2966.05 726.715 2965.5 725.471 2965.73 724.016 2966.65 723.012L2997.93 688.637C2999.23 687.204 3001.71 687.204 3003.01 688.637L3034.29 723.012C3035.21 724.016 3035.44 725.471 3034.9 726.715" fill="#FFFFFF" fill-rule="evenodd" fill-opacity="1"/></g></g></g><rect x="322" y="590" width="479" height="490" stroke="#DD344C" stroke-width="5.72917" stroke-linecap="butt" stroke-linejoin="miter" stroke-miterlimit="8" stroke-opacity="1" fill="none"/><text fill="#DE344C" fill-opacity="1" font-family="Arial,Arial_MSFontService,sans-serif" font-style="normal" font-variant="normal" font-weight="400" font-stretch="normal" font-size="50" text-anchor="start" direction="ltr" writing-mode="lr-tb" unicode-bidi="normal" text-decoration="none" transform="matrix(1 0 0 1 355.213 672)">Corporate Firewall</text><text fill="#000000" fill-opacity="1" font-family="Aptos,Aptos_MSFontService,sans-serif" font-style="normal" font-variant="normal" font-weight="400" font-stretch="normal" font-size="50" text-anchor="start" direction="ltr" writing-mode="lr-tb" unicode-bidi="normal" text-decoration="none" transform="matrix(1 0 0 1 430.086 836)">SFTP client </text><text fill="#000000" fill-opacity="1" font-family="Aptos,Aptos_MSFontService,sans-serif" font-style="normal" font-variant="normal" font-weight="400" font-stretch="normal" font-size="50" text-anchor="start" direction="ltr" writing-mode="lr-tb" unicode-bidi="normal" text-decoration="none" transform="matrix(1 0 0 1 430.086 896)">on</text><text fill="#000000" fill-opacity="1" font-family="Aptos,Aptos_MSFontService,sans-serif" font-style="normal" font-variant="normal" font-weight="400" font-stretch="normal" font-size="50" text-anchor="start" direction="ltr" writing-mode="lr-tb" unicode-bidi="normal" text-decoration="none" transform="matrix(1 0 0 1 486.232 896)">-</text><text fill="#000000" fill-opacity="1" font-family="Aptos,Aptos_MSFontService,sans-serif" font-style="normal" font-variant="normal" font-weight="400" font-stretch="normal" font-size="50" text-anchor="start" direction="ltr" writing-mode="lr-tb" unicode-bidi="normal" text-decoration="none" transform="matrix(1 0 0 1 503.42 896)">premises</text><g><g><g><path d="M0 0 137 0 137 137 0 137Z" fill="#7AA116" fill-rule="evenodd" fill-opacity="1" transform="matrix(1 0 0 1.0073 1317 437)"/><path d="M66.9109 75.5179C70.6989 75.5179 73.7814 78.597 73.7814 82.385 73.7814 86.1731 70.6989 89.2556 66.9109 89.2556 63.1228 89.2556 60.0403 86.1731 60.0403 82.385 60.0403 78.597 63.1228 75.5179 66.9109 75.5179L66.9109 75.5179ZM65.1162 92.4991 65.1162 104.466 68.5412 104.466 68.5412 92.5162C73.4389 91.7285 77.2064 87.5054 77.2064 82.385 77.2064 76.7098 72.5861 72.0929 66.9109 72.0929 61.2356 72.0929 56.6153 76.7098 56.6153 82.385 56.6153 87.4472 60.2938 91.6428 65.1162 92.4991ZM34.25 113.073 99.3662 113.073 99.3662 61.6501 34.25 61.6501 34.25 113.073ZM48.1076 42.7578C48.1076 32.4005 56.5331 23.975 66.8869 23.975 77.2441 23.975 85.6662 32.4005 85.6662 42.7578L85.6662 58.2251 48.1076 58.2251 48.1076 42.7578ZM101.079 58.2251 89.0912 58.2251 89.0912 42.7578C89.0912 30.5099 79.1279 20.55 66.8869 20.55 54.6425 20.55 44.6826 30.5099 44.6826 42.7578L44.6826 58.2251 32.5375 58.2251C31.5888 58.2251 30.825 58.9923 30.825 59.9376L30.825 114.786C30.825 115.731 31.5888 116.498 32.5375 116.498L101.079 116.498C102.024 116.498 102.791 115.731 102.791 114.786L102.791 59.9376C102.791 58.9923 102.024 58.2251 101.079 58.2251Z" fill="#FFFFFF" fill-rule="evenodd" fill-opacity="1" transform="matrix(1 0 0 1.0073 1317 437)"/></g></g></g><path d="M1315.5 437.5 2684.82 437.5" stroke="#7AA116" stroke-width="6.875" stroke-linecap="butt" stroke-linejoin="miter" stroke-miterlimit="8" stroke-opacity="1" fill="none" fill-rule="evenodd"/><path d="M1315.5 1097.5 2297.62 1097.5" stroke="#7AA116" stroke-width="6.875" stroke-linecap="butt" stroke-linejoin="miter" stroke-miterlimit="8" stroke-opacity="1" fill="none" fill-rule="evenodd"/><path d="M1317.5 981.5 1317.5 1097.25" stroke="#7AA116" stroke-width="6.875" stroke-linecap="butt" stroke-linejoin="miter" stroke-miterlimit="8" stroke-opacity="1" fill="none" fill-rule="evenodd"/><path d="M1319.5 437.5 1319.5 660.102" stroke="#7AA116" stroke-width="6.875" stroke-linecap="butt" stroke-linejoin="miter" stroke-miterlimit="8" stroke-opacity="1" fill="none" fill-rule="evenodd"/><path d="M2687.5 436.5 2687.5 1094.59" stroke="#7AA116" stroke-width="6.875" stroke-linecap="butt" stroke-linejoin="miter" stroke-miterlimit="8" stroke-opacity="1" fill="none" fill-rule="evenodd"/><rect x="1617" y="819" width="447" height="223" stroke="#00A4A6" stroke-width="5.72917" stroke-linecap="butt" stroke-linejoin="miter" stroke-miterlimit="8" stroke-dasharray="22.9167 17.1875" stroke-opacity="1" fill="none"/><text fill="#07878F" fill-opacity="1" font-family="Arial,Arial_MSFontService,sans-serif" font-style="normal" font-variant="normal" font-weight="400" font-stretch="normal" font-size="50" text-anchor="start" direction="ltr" writing-mode="lr-tb" unicode-bidi="normal" text-decoration="none" transform="matrix(1 0 0 1 1654.87 885)">Availability Zone</text><path d="M2450.5 1095.5 2689.84 1095.5" stroke="#7AA116" stroke-width="6.875" stroke-linecap="butt" stroke-linejoin="miter" stroke-miterlimit="8" stroke-opacity="1" fill="none" fill-rule="evenodd"/><path d="M2681.5 1177.5 2681.5 1586.5" stroke="#7AA116" stroke-width="6.875" stroke-linecap="butt" stroke-linejoin="miter" stroke-miterlimit="8" stroke-opacity="1" fill="none" fill-rule="evenodd"/><path d="M1310.5 1177.5 2292.62 1177.5" stroke="#7AA116" stroke-width="6.875" stroke-linecap="butt" stroke-linejoin="miter" stroke-miterlimit="8" stroke-opacity="1" fill="none" fill-rule="evenodd"/><path d="M1310.5 1586.5 2685.06 1586.5" stroke="#7AA116" stroke-width="6.875" stroke-linecap="butt" stroke-linejoin="miter" stroke-miterlimit="8" stroke-opacity="1" fill="none" fill-rule="evenodd"/><path d="M1311.5 1173.5 1311.5 1586.76" stroke="#7AA116" stroke-width="6.875" stroke-linecap="butt" stroke-linejoin="miter" stroke-miterlimit="8" stroke-opacity="1" fill="none" fill-rule="evenodd"/><path d="M867.306 762.063 1221.32 762.063 1221.32 768.938 867.306 768.938ZM893.074 784.511 860.484 765.5 893.074 746.489 893.074 746.489C894.714 745.533 896.819 746.086 897.775 747.726 898.732 749.366 898.178 751.471 896.538 752.428L896.538 752.428 869.038 768.469 869.038 762.531 896.538 778.573C898.178 779.529 898.732 781.634 897.775 783.274 896.819 784.914 894.714 785.468 893.074 784.511ZM1195.55 746.49 1228.14 765.5 1195.55 784.511C1193.91 785.468 1191.81 784.914 1190.85 783.274 1189.89 781.634 1190.45 779.529 1192.09 778.573L1219.59 762.531 1219.59 768.47 1192.09 752.428C1190.45 751.471 1189.89 749.367 1190.85 747.727 1191.81 746.087 1193.91 745.533 1195.55 746.49Z" fill="#000000" fill-rule="nonzero" fill-opacity="1"/><g><g><g><path d="M0 0 137 0 137 137 0 137Z" fill="#242F3E" fill-rule="evenodd" fill-opacity="1" transform="matrix(1.0073 0 0 1 1118 238)"/><path d="M111.991 81.8603C113.228 83.4667 110.621 90.0769 109.454 93.0361 109.097 93.9335 109.858 94.2862 110.652 93.6115 115.834 89.2138 117.177 79.9971 116.112 78.6682 115.06 77.3462 106.005 76.2125 100.483 80.1478 99.6306 80.7541 99.7779 81.5898 100.72 81.4802 103.83 81.0966 110.758 80.2574 111.991 81.8603L111.991 81.8603ZM109.108 88.7412C110.882 87.4465 109.361 85.5182 107.553 86.2752 95.5206 91.2894 82.4577 93.7177 70.5626 93.7177 52.9478 93.7177 35.8776 88.9604 22.0783 81.0623 20.8727 80.3705 19.9787 81.5932 20.9857 82.4803 33.7712 93.8376 50.677 100.664 69.4392 100.664 82.831 100.664 98.3839 96.5262 109.108 88.7412ZM101.764 70.8798C100.059 70.8798 98.3908 70.6982 96.7673 70.3283 95.137 69.955 93.8903 69.5337 93.0238 69.0508 92.4929 68.7631 92.1607 68.4617 92.0271 68.1672 91.897 67.8658 91.8285 67.5712 91.8285 67.2767L91.8285 65.6703C91.8285 65.0059 92.0785 64.6668 92.5683 64.6668 92.7566 64.6668 92.9553 64.7113 93.1608 64.7798 93.3697 64.8586 93.6437 64.9682 93.9862 65.1155 95.0822 65.5984 96.2707 65.9649 97.5619 66.2252 98.8497 66.4821 100.134 66.6122 101.418 66.6122 103.463 66.6122 105.042 66.2629 106.159 65.5573 107.279 64.8586 107.834 63.8619 107.834 62.5673 107.834 61.6768 107.542 60.9404 106.953 60.3445 106.368 59.7485 105.278 59.2039 103.693 58.6833L98.9833 57.2414C96.5961 56.5016 94.8664 55.4296 93.7876 54.0288 92.7087 52.6176 92.171 51.0867 92.171 49.4153 92.171 48.0898 92.4621 46.9184 93.0546 45.8978 93.6369 44.8806 94.4075 44.014 95.3699 43.2914 96.346 42.5721 97.4729 42.031 98.7572 41.6542 100.038 41.2877 101.401 41.0994 102.84 41.0994 103.559 41.0994 104.289 41.1473 105.032 41.2398 105.768 41.3288 106.467 41.4521 107.128 41.5994 107.789 41.7535 108.405 41.9179 108.971 42.0995 109.539 42.2878 109.991 42.4728 110.337 42.6543 110.786 42.9112 111.104 43.1715 111.3 43.4318 111.488 43.6887 111.584 44.038 111.584 44.4867L111.584 45.98C111.584 46.6479 111.337 46.9767 110.841 46.9767 110.577 46.9767 110.166 46.8534 109.594 46.5931 107.744 45.7745 105.655 45.3738 103.357 45.3738 101.501 45.3738 100.059 45.6683 99.0381 46.2574 98.014 46.8534 97.5037 47.7952 97.5037 49.0899 97.5037 49.9735 97.8257 50.7236 98.473 51.3333 99.1169 51.9429 100.305 52.5252 102.049 53.0835L106.645 54.5288C108.991 55.2618 110.666 56.2824 111.666 57.5702 112.673 58.8683 113.177 60.3445 113.177 62.0056 113.177 63.379 112.892 64.6086 112.32 65.6977 111.752 66.7903 110.967 67.7185 109.96 68.496 108.96 69.2734 107.762 69.8625 106.361 70.2701 104.957 70.6811 103.426 70.8798 101.764 70.8798ZM60.0992 70.0441C59.5307 70.0441 59.1163 69.9516 58.8491 69.7461 58.582 69.5372 58.3559 69.1262 58.1675 68.496L50.5572 43.9832C50.3756 43.353 50.2763 42.9317 50.2763 42.7125 50.2763 42.1954 50.5435 41.9351 51.0743 41.9351L54.2493 41.9351C54.8555 41.9351 55.2802 42.0378 55.5303 42.2433 55.7735 42.442 55.9892 42.853 56.1776 43.49L61.6268 64.451 66.6855 43.49C66.8362 42.853 67.0417 42.442 67.3054 42.2433 67.5692 42.0378 68.0041 41.9351 68.6069 41.9351L71.2271 41.9351C71.8264 41.9351 72.2614 42.0378 72.5286 42.2433 72.7923 42.442 73.0012 42.853 73.1519 43.49L78.2654 64.7285 83.8825 43.49C84.0708 42.853 84.2866 42.442 84.5332 42.2433 84.7832 42.0378 85.2045 41.9351 85.8107 41.9351L88.8179 41.9351C89.3522 41.9351 89.6159 42.1954 89.6159 42.7125 89.6159 42.853 89.5919 43.0242 89.5611 43.2057 89.5166 43.3975 89.4481 43.6544 89.3282 43.9832L81.4987 68.496C81.3103 69.1262 81.0808 69.5372 80.8137 69.7461 80.5499 69.9516 80.1321 70.0441 79.5669 70.0441L76.7824 70.0441C76.1796 70.0441 75.7447 69.9413 75.4809 69.7221 75.2172 69.4995 75.0083 69.0679 74.8576 68.4446L69.8023 48.0316 64.812 68.4446C64.6613 69.0679 64.449 69.4995 64.1853 69.7221 63.9181 69.9413 63.4866 70.0441 62.8803 70.0441L60.0992 70.0441ZM34.0418 66.6122C35.107 66.6122 36.2201 66.417 37.3949 66.03 38.5662 65.6395 39.5869 64.9682 40.4568 64.0024 40.9911 63.4133 41.3542 62.7385 41.5665 61.9782 41.772 61.2247 41.8714 60.3102 41.8714 59.2348L41.8714 57.9059C40.9329 57.6832 39.9397 57.5086 38.895 57.3784 37.8538 57.2517 36.8435 57.1832 35.8571 57.1832 33.7027 57.1832 32.0895 57.6079 31.0346 58.4607 29.9763 59.3101 29.442 60.526 29.442 62.1255 29.442 63.6016 29.8427 64.7148 30.6373 65.4751 31.4319 66.2355 32.569 66.6122 34.0418 66.6122ZM47.2144 61.7898C47.2144 62.9714 47.3342 63.9099 47.5808 64.6154 47.8309 65.321 48.1802 66.0813 48.6323 66.8896 48.783 67.1499 48.8584 67.3897 48.8584 67.6055 48.8584 67.9445 48.6494 68.2596 48.235 68.5508L46.1903 69.8865C45.8889 70.068 45.6046 70.1639 45.3409 70.1639 44.995 70.1639 44.6764 70.0167 44.375 69.7221 43.9161 69.2734 43.5325 68.7871 43.214 68.2494 42.8852 67.7151 42.5564 67.0883 42.2173 66.3862 39.6794 69.3077 36.5044 70.7702 32.6821 70.7702 29.9558 70.7702 27.798 70.0167 26.2054 68.496 24.6196 66.9821 23.825 64.9477 23.825 62.3995 23.825 59.704 24.808 57.5257 26.7808 55.8817 28.7433 54.2377 31.3977 53.4123 34.7234 53.4123 35.8228 53.4123 36.9668 53.4979 38.1587 53.6623 39.3471 53.8267 40.5904 54.063 41.8714 54.3576L41.8714 52.032C41.8714 49.6276 41.3679 47.9357 40.3438 46.9527 39.3232 45.9731 37.5661 45.4868 35.0693 45.4868 33.9288 45.4868 32.7643 45.6204 31.5724 45.8978 30.3839 46.1752 29.216 46.5348 28.0823 46.9767 27.5514 47.1993 27.1712 47.3397 26.9486 47.3945 26.7226 47.4493 26.5513 47.4767 26.4383 47.4767 25.9862 47.4767 25.7533 47.1479 25.7533 46.4766L25.7533 44.9285C25.7533 44.4079 25.8355 44.038 25.9862 43.8222 26.1369 43.5962 26.4383 43.3736 26.8938 43.1544 28.0275 42.5961 29.3906 42.1166 30.9764 41.7124 32.569 41.3049 34.2507 41.0994 36.0317 41.0994 39.8883 41.0994 42.7173 41.9659 44.5155 43.6784 46.3102 45.3977 47.2144 47.9939 47.2144 51.4703L47.2144 61.7898Z" fill="#FFFFFF" fill-rule="evenodd" fill-opacity="1" transform="matrix(1.0073 0 0 1 1118 238)"/></g></g></g><text fill="#7AA116" fill-opacity="1" font-family="Arial,Arial_MSFontService,sans-serif" font-style="normal" font-variant="normal" font-weight="400" font-stretch="normal" font-size="50" text-anchor="start" direction="ltr" writing-mode="lr-tb" unicode-bidi="normal" text-decoration="none" transform="matrix(1 0 0 1 1490.17 503)">VPC</text><text fill="#7AA116" fill-opacity="1" font-family="Arial,Arial_MSFontService,sans-serif" font-style="normal" font-variant="normal" font-weight="400" font-stretch="normal" font-size="50" text-anchor="start" direction="ltr" writing-mode="lr-tb" unicode-bidi="normal" text-decoration="none" transform="matrix(1 0 0 1 1467.88 1248)">Private VPC</text><text fill="#000000" fill-opacity="1" font-family="Arial,Arial_MSFontService,sans-serif" font-style="normal" font-variant="normal" font-weight="400" font-stretch="normal" font-size="46" text-anchor="start" direction="ltr" writing-mode="lr-tb" unicode-bidi="normal" text-decoration="none" transform="matrix(1 0 0 1 2327.27 928)">VPC </text><text fill="#000000" fill-opacity="1" font-family="Arial,Arial_MSFontService,sans-serif" font-style="normal" font-variant="normal" font-weight="400" font-stretch="normal" font-size="46" text-anchor="start" direction="ltr" writing-mode="lr-tb" unicode-bidi="normal" text-decoration="none" transform="matrix(1 0 0 1 2287.16 983)">endpoint</text><text fill="#000000" fill-opacity="1" font-family="Arial,Arial_MSFontService,sans-serif" font-style="normal" font-variant="normal" font-weight="400" font-stretch="normal" font-size="46" text-anchor="start" direction="ltr" writing-mode="lr-tb" unicode-bidi="normal" text-decoration="none" transform="matrix(1 0 0 1 1603.53 1376)">Internal </text><text fill="#000000" fill-opacity="1" font-family="Arial,Arial_MSFontService,sans-serif" font-style="normal" font-variant="normal" font-weight="400" font-stretch="normal" font-size="46" text-anchor="start" direction="ltr" writing-mode="lr-tb" unicode-bidi="normal" text-decoration="none" transform="matrix(1 0 0 1 1561.41 1431)">SFTP client</text><path d="M0 0 391.75 0 391.75 164.477" stroke="#000000" stroke-width="6.875" stroke-linecap="butt" stroke-linejoin="miter" stroke-miterlimit="8" stroke-opacity="1" fill="none" fill-rule="evenodd" transform="matrix(1 0 0 -1 1982.5 1383.98)"/><text fill="#000000" fill-opacity="1" font-family="Arial,Arial_MSFontService,sans-serif" font-style="normal" font-variant="normal" font-weight="400" font-stretch="normal" font-size="46" text-anchor="start" direction="ltr" writing-mode="lr-tb" unicode-bidi="normal" text-decoration="none" transform="matrix(1 0 0 1 1712.45 701)">Elastic IP #1</text><text fill="#000000" fill-opacity="1" font-family="Arial,Arial_MSFontService,sans-serif" font-style="normal" font-variant="normal" font-weight="400" font-stretch="normal" font-size="46" text-anchor="start" direction="ltr" writing-mode="lr-tb" unicode-bidi="normal" text-decoration="none" transform="matrix(1 0 0 1 1712.45 978)">Elastic IP #2</text><path d="M2487.31 772.062 2790.21 772.063 2790.21 778.938 2487.31 778.938ZM2513.07 794.511 2480.48 775.5 2513.07 756.489 2513.07 756.489C2514.71 755.533 2516.82 756.086 2517.78 757.726 2518.73 759.366 2518.18 761.471 2516.54 762.428L2516.54 762.428 2489.04 778.469 2489.04 772.531 2516.54 788.572C2518.18 789.529 2518.73 791.634 2517.78 793.274 2516.82 794.914 2514.71 795.468 2513.07 794.511ZM2764.44 756.489 2797.03 775.5 2764.44 794.511C2762.8 795.468 2760.7 794.914 2759.74 793.274 2758.78 791.634 2759.34 789.529 2760.98 788.573L2788.48 772.531 2788.48 778.47 2760.98 762.428C2759.34 761.471 2758.78 759.366 2759.74 757.727 2760.7 756.087 2762.8 755.533 2764.44 756.489Z" fill="#000000" fill-rule="nonzero" fill-opacity="1"/><path d="M3121.31 772.062 3312.08 772.063 3312.08 778.938 3121.31 778.938ZM3147.07 794.511 3114.48 775.5 3147.07 756.489C3148.71 755.533 3150.82 756.086 3151.78 757.726 3152.73 759.366 3152.18 761.471 3150.54 762.428L3123.04 778.469 3123.04 772.531 3150.54 788.573C3152.18 789.529 3152.73 791.634 3151.78 793.274 3150.82 794.914 3148.71 795.468 3147.07 794.511ZM3286.32 756.489 3318.91 775.5 3286.32 794.511C3284.68 795.468 3282.57 794.914 3281.61 793.274 3280.66 791.634 3281.21 789.529 3282.85 788.573L3310.35 772.531 3310.35 778.47 3282.85 762.428C3281.21 761.471 3280.66 759.366 3281.61 757.727 3282.57 756.087 3284.68 755.533 3286.32 756.489Z" fill="#000000" fill-rule="nonzero" fill-opacity="1"/><text fill="#000000" fill-opacity="1" font-family="Arial,Arial_MSFontService,sans-serif" font-style="normal" font-variant="normal" font-weight="400" font-stretch="normal" font-size="46" text-anchor="start" direction="ltr" writing-mode="lr-tb" unicode-bidi="normal" text-decoration="none" transform="matrix(1 0 0 1 2743.86 1010)">AWS Transfer Family</text><text fill="#000000" fill-opacity="1" font-family="Arial,Arial_MSFontService,sans-serif" font-style="normal" font-variant="normal" font-weight="400" font-stretch="normal" font-size="46" text-anchor="start" direction="ltr" writing-mode="lr-tb" unicode-bidi="normal" text-decoration="none" transform="matrix(1 0 0 1 3360.34 1010)">Amazon S3</text><text fill="#000000" fill-opacity="1" font-family="Arial,Arial_MSFontService,sans-serif" font-style="italic" font-variant="normal" font-weight="400" font-stretch="normal" font-size="50" text-anchor="start" direction="ltr" writing-mode="lr-tb" unicode-bidi="normal" text-decoration="none" transform="matrix(1 0 0 1 2433.18 1248)">Connect </text><text fill="#000000" fill-opacity="1" font-family="Arial,Arial_MSFontService,sans-serif" font-style="italic" font-variant="normal" font-weight="400" font-stretch="normal" font-size="50" text-anchor="start" direction="ltr" writing-mode="lr-tb" unicode-bidi="normal" text-decoration="none" transform="matrix(1 0 0 1 2407.68 1309)">using VPC </text><text fill="#000000" fill-opacity="1" font-family="Arial,Arial_MSFontService,sans-serif" font-style="italic" font-variant="normal" font-weight="400" font-stretch="normal" font-size="50" text-anchor="start" direction="ltr" writing-mode="lr-tb" unicode-bidi="normal" text-decoration="none" transform="matrix(1 0 0 1 2430.32 1369)">endpoint </text><text fill="#000000" fill-opacity="1" font-family="Arial,Arial_MSFontService,sans-serif" font-style="italic" font-variant="normal" font-weight="400" font-stretch="normal" font-size="50" text-anchor="start" direction="ltr" writing-mode="lr-tb" unicode-bidi="normal" text-decoration="none" transform="matrix(1 0 0 1 2420.85 1430)">private IP </text><text fill="#000000" fill-opacity="1" font-family="Arial,Arial_MSFontService,sans-serif" font-style="italic" font-variant="normal" font-weight="400" font-stretch="normal" font-size="50" text-anchor="start" direction="ltr" writing-mode="lr-tb" unicode-bidi="normal" text-decoration="none" transform="matrix(1 0 0 1 2408.25 1490)">address or </text><text fill="#000000" fill-opacity="1" font-family="Arial,Arial_MSFontService,sans-serif" font-style="italic" font-variant="normal" font-weight="400" font-stretch="normal" font-size="50" text-anchor="start" direction="ltr" writing-mode="lr-tb" unicode-bidi="normal" text-decoration="none" transform="matrix(1 0 0 1 2403.67 1551)">DNS name</text><path d="M2445.5 1177.5 2684.84 1177.5" stroke="#7AA116" stroke-width="6.875" stroke-linecap="butt" stroke-linejoin="miter" stroke-miterlimit="8" stroke-opacity="1" fill="none" fill-rule="evenodd"/></g></g></svg>